HIERARCHY
ROOT Hips
{
	OFFSET 0.000000 0.000000 0.000000
	CHANNELS 6 Xposition Yposition Zposition Zrotation Yrotation Xrotation 
	JOINT LHipJoint
	{
		OFFSET 0.000000 0.000000 0.000000
		CHANNELS 3 Zrotation Yrotation Xrotation
		JOINT LeftUpLeg
		{
			OFFSET 1.363060 -1.794630 0.839290
			CHANNELS 3 Zrotation Yrotation Xrotation
			JOINT LeftLeg
			{
				OFFSET 2.448110 -6.726130 0.000000
				CHANNELS 3 Zrotation Yrotation Xrotation
				JOINT LeftFoot
				{
					OFFSET 2.562200 -7.039590 0.000000
					CHANNELS 3 Zrotation Yrotation Xrotation
					JOINT LeftToeBase
					{
						OFFSET 0.157640 -0.433110 2.322550
						CHANNELS 3 Zrotation Yrotation Xrotation
						End Site
						{
							OFFSET 0.000000 0.000000 0.000000
						}
					}
				}
			}
		}
	}
	JOINT RHipJoint
	{
		OFFSET 0.000000 0.000000 0.000000
		CHANNELS 3 Zrotation Yrotation Xrotation
		JOINT RightUpLeg
		{
			OFFSET -1.305520 -1.794630 0.839290
			CHANNELS 3 Zrotation Yrotation Xrotation
			JOINT RightLeg
			{
				OFFSET -2.542530 -6.985550 0.000000
				CHANNELS 3 Zrotation Yrotation Xrotation
				JOINT RightFoot
				{
					OFFSET -2.568260 -7.056230 0.000000
					CHANNELS 3 Zrotation Yrotation Xrotation
					JOINT RightToeBase
					{
						OFFSET -0.164730 -0.452590 2.363150
						CHANNELS 3 Zrotation Yrotation Xrotation
						End Site
						{
							OFFSET 0.000000 0.000000 0.000000
						}
					}
				}
			}
		}
	}
	JOINT LowerBack
	{
		OFFSET 0.000000 0.000000 0.000000
		CHANNELS 3 Zrotation Yrotation Xrotation
		JOINT Spine
		{
			OFFSET 0.028270 2.035590 -0.193380
			CHANNELS 3 Zrotation Yrotation Xrotation
			JOINT Spine1
			{
				OFFSET 0.056720 2.048850 -0.042750
				CHANNELS 3 Zrotation Yrotation Xrotation
				JOINT Neck
				{
					OFFSET 0.000000 0.000000 0.000000
					CHANNELS 3 Zrotation Yrotation Xrotation
					JOINT Neck1
					{
						OFFSET -0.054170 1.746240 0.172020
						CHANNELS 3 Zrotation Yrotation Xrotation
						JOINT Head
						{
							OFFSET 0.104070 1.761360 -0.123970
							CHANNELS 3 Zrotation Yrotation Xrotation
							End Site
							{
								OFFSET 0.000000 0.000000 0.000000
							}
						}
					}
				}
				JOINT LeftShoulder
				{
					OFFSET 0.000000 0.000000 0.000000
					CHANNELS 3 Zrotation Yrotation Xrotation
					JOINT LeftArm
					{
						OFFSET 3.362410 1.200890 -0.311210
						CHANNELS 3 Zrotation Yrotation Xrotation
						JOINT LeftForeArm
						{
							OFFSET 4.983000 -0.000000 -0.000000
							CHANNELS 3 Zrotation Yrotation Xrotation
							JOINT LeftHand
							{
								OFFSET 3.483560 -0.000000 -0.000000
								CHANNELS 3 Zrotation Yrotation Xrotation
								JOINT LeftFingerBase
								{
									OFFSET 0.000000 0.000000 0.000000
									CHANNELS 3 Zrotation Yrotation Xrotation
									JOINT LeftHandIndex1
									{
										OFFSET 0.715260 -0.000000 -0.000000
										CHANNELS 3 Zrotation Yrotation Xrotation
										End Site
										{
											OFFSET 0.000000 0.000000 0.000000
										}
									}
								}
								JOINT LThumb
								{
									OFFSET 0.000000 0.000000 0.000000
									CHANNELS 3 Zrotation Yrotation Xrotation
									End Site
									{
										OFFSET 0.000000 0.000000 0.000000
									}
								}
							}
						}
					}
				}
				JOINT RightShoulder
				{
					OFFSET 0.000000 0.000000 0.000000
					CHANNELS 3 Zrotation Yrotation Xrotation
					JOINT RightArm
					{
						OFFSET -3.136600 1.374050 -0.404650
						CHANNELS 3 Zrotation Yrotation Xrotation
						JOINT RightForeArm
						{
							OFFSET -5.241900 -0.000000 -0.000000
							CHANNELS 3 Zrotation Yrotation Xrotation
							JOINT RightHand
							{
								OFFSET -3.444170 -0.000000 -0.000000
								CHANNELS 3 Zrotation Yrotation Xrotation
								JOINT RightFingerBase
								{
									OFFSET 0.000000 0.000000 0.000000
									CHANNELS 3 Zrotation Yrotation Xrotation
									JOINT RightHandIndex1
									{
										OFFSET -0.622530 -0.000000 -0.000000
										CHANNELS 3 Zrotation Yrotation Xrotation
										End Site
										{
											OFFSET 0.000000 0.000000 0.000000
										}
									}
								}
								JOINT RThumb
								{
									OFFSET 0.000000 0.000000 0.000000
									CHANNELS 3 Zrotation Yrotation Xrotation
									End Site
									{
										OFFSET 0.000000 0.000000 0.000000
									}
								}
							}
						}
					}
				}
			}
		}
	}
}
MOTION
Frames: 7
Frame Time: 0.033333
-1.729669 16.384352 23.741738 2.905884 3.175688 8.203905 -4.208345 13.497150 -2.529027 -21.709968 -4.652133 -9.345454 -14.023767 -8.368815 -22.007991 1.858218 14.191758 30.797236 0.000000 0.000000 0.000000 10.843738 -8.869621 5.718659 2.673446 5.863879 -10.942970 -2.065547 -19.597898 48.222834 13.289992 -21.866408 10.742655 0.000000 0.000000 0.000000 -3.774697 -0.614157 2.678395 4.676968 -1.581525 12.443020 -0.447613 -0.112677 -14.038326 3.975536 -0.519929 -7.144608 -0.968511 -0.077759 -0.485378 0.000000 0.000000 0.000000 -2.231548 12.854720 9.376938 -68.046842 -2.662581 22.103959 -27.528536 -67.997399 0.642432 -0.973928 -11.971012 0.319647 -0.981599 -11.981162 0.000000 0.000000 0.000000 0.000000 0.000000 0.000000 0.000000 -2.207933 -15.621409 8.208490 62.268537 4.003628 16.844860 23.946623 64.971572 0.262571 -0.087035 9.715281 0.130205 -0.097137 9.718197 0.000000 0.000000 0.000000 0.000000 0.000000 0.000000 0.000000 
-1.741201 16.411854 23.942048 3.256993 3.044374 8.232181 -3.795240 13.687233 -2.725296 -22.675331 -4.620117 -8.872714 -13.410741 -7.927188 -20.452119 1.372333 12.508289 27.388542 0.000000 0.000000 0.000000 10.778810 -9.013786 6.043160 2.350856 5.744148 -10.862871 -2.173446 -19.420080 47.832392 13.604643 -23.476715 12.954091 0.000000 0.000000 0.000000 -3.819803 -0.596796 2.550210 4.190690 -1.593093 12.559597 -0.313071 -0.167656 -13.852591 4.007172 -0.526128 -7.120298 -0.966993 -0.076451 -0.518492 0.000000 0.000000 0.000000 -2.083059 12.669027 9.360511 -68.083420 -2.762393 22.147045 -26.905050 -68.616587 0.638214 -0.827268 -12.166962 0.317365 -0.832880 -12.176987 0.000000 0.000000 0.000000 0.000000 0.000000 0.000000 0.000000 -2.264800 -15.486363 8.166529 62.496349 4.016033 17.016856 23.627176 65.647944 0.269239 -0.115991 9.881447 0.133479 -0.126540 9.884401 0.000000 0.000000 0.000000 0.000000 0.000000 0.000000 0.000000 
-1.752093 16.441183 24.139413 3.585863 2.913301 8.261820 -3.436697 13.882916 -2.929635 -23.575323 -4.603357 -8.468333 -12.761046 -7.449460 -18.817387 0.965148 10.864755 24.089384 0.000000 0.000000 0.000000 10.751123 -9.159893 6.373739 2.006958 5.605214 -10.793816 -2.279421 -19.231435 47.395232 13.847053 -25.067990 15.105088 0.000000 0.000000 0.000000 -3.870881 -0.584774 2.431379 3.750896 -1.605372 12.659747 -0.189923 -0.220141 -13.680460 4.037467 -0.532018 -7.100291 -0.966572 -0.075378 -0.547318 0.000000 0.000000 0.000000 -1.944802 12.496623 9.346460 -68.117955 -2.855458 22.173504 -26.324673 -69.176324 0.633622 -0.688333 -12.344310 0.314900 -0.691898 -12.354176 0.000000 0.000000 0.000000 0.000000 0.000000 0.000000 0.000000 -2.320477 -15.361676 8.127224 62.707069 4.027104 17.170125 23.325085 66.265897 0.275315 -0.144516 10.033618 0.136460 -0.155501 10.036601 0.000000 0.000000 0.000000 0.000000 0.000000 0.000000 0.000000 
-1.761128 16.471821 24.333103 3.890134 2.782753 8.293629 -3.135698 14.084245 -3.138351 -24.400883 -4.600284 -8.133995 -12.099123 -6.938507 -17.121679 0.629607 9.289019 20.937126 0.000000 0.000000 0.000000 10.758898 -9.307225 6.709192 1.644763 5.451231 -10.737164 -2.386680 -19.033156 46.921540 14.008688 -26.617440 17.181053 0.000000 0.000000 0.000000 -3.925404 -0.578359 2.320459 3.357125 -1.618781 12.744561 -0.077870 -0.270184 -13.522050 4.066673 -0.537677 -7.084789 -0.967570 -0.074559 -0.572424 0.000000 0.000000 0.000000 -1.817019 12.337563 9.334572 -68.150637 -2.941480 22.186342 -25.789764 -69.678996 0.628824 -0.558245 -12.503671 0.312338 -0.559811 -12.513352 0.000000 0.000000 0.000000 0.000000 0.000000 0.000000 0.000000 -2.374772 -15.247286 8.090967 62.900699 4.037014 17.305522 23.042552 66.826396 0.280803 -0.172173 10.171881 0.139150 -0.183579 10.174887 0.000000 0.000000 0.000000 0.000000 0.000000 0.000000 0.000000 
-1.768334 16.503218 24.522386 4.168408 2.651454 8.328300 -2.891470 14.288463 -3.347721 -25.147370 -4.609920 -7.866997 -11.433226 -6.402881 -15.389209 0.357424 7.799712 17.962151 0.000000 0.000000 0.000000 10.799636 -9.454055 7.047272 1.268377 5.286716 -10.692600 -2.491676 -18.827311 46.421039 14.087918 -28.106036 19.167643 0.000000 0.000000 0.000000 -3.982771 -0.577253 2.216540 3.009898 -1.633318 12.814639 0.023188 -0.317435 -13.377960 4.095084 -0.543152 -7.074146 -0.970291 -0.074010 -0.594296 0.000000 0.000000 0.000000 -1.700287 12.192480 9.324724 -68.181590 -3.019849 22.188311 -25.304235 -70.125009 0.623996 -0.438493 -12.645063 0.309770 -0.438151 -12.654542 0.000000 0.000000 0.000000 0.000000 0.000000 0.000000 0.000000 -2.427304 -15.143407 8.058273 63.076589 4.045854 17.423376 22.782589 67.328336 0.285687 -0.198446 10.295834 0.141541 -0.210250 10.298856 0.000000 0.000000 0.000000 0.000000 0.000000 0.000000 0.000000 
-1.773313 16.534947 24.706651 4.419815 2.517952 8.366324 -2.702862 14.492477 -3.554245 -25.810480 -4.631501 -7.664701 -10.776203 -5.848987 -13.639798 0.140474 6.411309 15.183111 0.000000 0.000000 0.000000 10.869819 -9.598609 7.386048 0.881977 5.116456 -10.659876 -2.593625 -18.615164 45.902983 14.083923 -29.516422 21.058170 0.000000 0.000000 0.000000 -4.041250 -0.581056 2.118201 2.706609 -1.648813 12.871233 0.114406 -0.361708 -13.246578 4.123685 -0.548641 -7.069270 -0.975451 -0.073775 -0.613831 0.000000 0.000000 0.000000 -1.593421 12.060171 9.316569 -68.211659 -3.090921 22.181752 -24.864752 -70.520899 0.619224 -0.328748 -12.770446 0.307240 -0.326602 -12.779714 0.000000 0.000000 0.000000 0.000000 0.000000 0.000000 0.000000 -2.479111 -15.048078 8.029395 63.236963 4.054044 17.525528 22.544185 67.777666 0.290019 -0.223243 10.406806 0.143660 -0.235422 10.409838 0.000000 0.000000 0.000000 0.000000 0.000000 0.000000 0.000000 
-1.775503 16.566549 24.885808 4.644004 2.380672 8.407885 -2.566132 14.691512 -3.756812 -26.388427 -4.662092 -7.520049 -10.142094 -5.281815 -11.890529 -0.029002 5.131801 12.602772 0.000000 0.000000 0.000000 10.966606 -9.737751 7.724453 0.487940 4.944182 -10.637427 -2.692484 -18.398289 45.374848 13.998461 -30.835633 22.852158 0.000000 0.000000 0.000000 -4.101804 -0.589382 2.025434 2.448419 -1.665104 12.914497 0.195809 -0.402531 -13.128753 4.152821 -0.554179 -7.070650 -0.983367 -0.073872 -0.631437 0.000000 0.000000 0.000000 -1.497133 11.941504 9.310062 -68.240954 -3.153936 22.168839 -24.475637 -70.865616 0.614666 -0.230526 -12.879429 0.304829 -0.226719 -12.888485 0.000000 0.000000 0.000000 0.000000 0.000000 0.000000 0.000000 -2.529785 -14.961665 8.004873 63.380831 4.061614 17.611899 22.330458 68.172005 0.293775 -0.246059 10.504114 0.145495 -0.258583 10.507152 0.000000 0.000000 0.000000 0.000000 0.000000 0.000000 0.000000 
